<?xml version="1.0" encoding="UTF-8"?>
<svg version="1.1" xmlns="http://www.w3.org/2000/svg" width="1748" height="1240">
<path d="M0 0 C0.95092529 0.00612305 1.90185059 0.01224609 2.8815918 0.01855469 C14.25795231 0.26626038 25.27892924 2.44448134 35.54296875 7.5078125 C37.43673897 8.43712654 39.32664276 9.16661806 41.3125 9.875 C44.49686742 11.03694866 47.55080134 12.38439903 50.625 13.8125 C55.66832971 16.13326298 60.77436961 18.18182339 65.97265625 20.12890625 C68.28396997 21.00183759 70.58383981 21.90568657 72.87109375 22.83984375 C101.08594769 34.09592834 129.91701464 37.65839718 160.0625 37.75 C161.23977158 37.75578568 161.23977158 37.75578568 162.44082642 37.76168823 C171.51992243 37.78372516 180.37921357 37.32438908 189.38916016 36.21017456 C199.24411251 35.03042917 209.15087569 34.75698451 219.0625 34.375 C221.99786515 34.25860176 224.93312246 34.14031663 227.86825562 34.01820374 C229.67347086 33.94339449 231.4788278 33.87189716 233.28433228 33.8044281 C236.9363428 33.65558417 240.47011771 33.43287362 244.09350586 32.91894531 C250.58545501 32.04644469 257.17621613 32.27286639 263.71484375 32.26953125 C265.2096815 32.26630931 266.70451895 32.26294457 268.19935608 32.25944519 C271.32863086 32.25347714 274.45787814 32.25160265 277.5871582 32.25219727 C281.54695221 32.2522982 285.50656412 32.23870723 289.46631527 32.22142506 C292.5560635 32.21015772 295.64576993 32.20828258 298.73553658 32.20880699 C300.19239485 32.20764654 301.64925493 32.20333738 303.10609245 32.19547462 C312.46495618 32.14972999 321.54979549 32.75148287 330.83018494 33.98139954 C334.93410488 34.50028956 338.92990312 34.70308297 343.0625 34.8125 C353.03797042 35.23281165 362.72268475 37.02140471 372.51513672 38.88476562 C375.42518696 39.43517112 378.33865314 39.96229892 381.25390625 40.484375 C383.10691225 40.82214176 384.9597827 41.16065321 386.8125 41.5 C387.64950439 41.64993408 388.48650879 41.79986816 389.34887695 41.9543457 C394.90855278 42.99954908 400.10567839 44.56665555 405.4375 46.4375 C407.08470693 46.97901804 408.73319055 47.51666526 410.3828125 48.05078125 C459.20362281 64.01277907 459.20362281 64.01277907 471.4375 80.4375 C472.99694339 83.55638678 472.72066275 85.9829145 472.4375 89.4375 C466.40995416 103.50177362 450.77960465 108.83405496 437.53125 114.203125 C436.5103125 114.61046875 435.489375 115.0178125 434.4375 115.4375 C433.3340625 115.88609375 432.230625 116.3346875 431.09375 116.796875 C427.21634052 118.3646971 423.32903825 119.90519572 419.4375 121.4375 C418.69983398 121.72995605 417.96216797 122.02241211 417.20214844 122.32373047 C382.45866079 136.04820729 346.45750225 146.41780193 310.53857422 156.56005859 C306.789777 157.62077165 303.04465133 158.69399525 299.29980469 159.76855469 C290.85481837 162.19111108 282.39896123 164.57316391 273.9375 166.9375 C265.85154352 169.19904388 257.76585207 171.46141823 249.6875 173.75 C248.82447266 173.99234375 247.96144531 174.2346875 247.07226562 174.484375 C243.92571311 175.3790574 240.85791715 176.26870565 237.8203125 177.48828125 C234.6448987 178.75324117 231.37889866 179.51956201 228.0625 180.3125 C226.62866836 180.66309103 225.19507966 181.01467688 223.76171875 181.3671875 C223.03903809 181.54475586 222.31635742 181.72232422 221.57177734 181.90527344 C218.3298925 182.71370503 215.10250511 183.57365775 211.875 184.4375 C210.6271875 184.77136719 209.379375 185.10523438 208.09375 185.44921875 C205.80001306 186.06921388 203.50803903 186.69580893 201.21875 187.33203125 C183.37064449 192.23192003 165.23837725 196.20800278 147.15917969 200.15795898 C143.20739801 201.02566572 139.28883296 201.97557392 135.375 203 C128.62398979 204.71308035 121.79034225 205.87149342 114.92626953 207.01953125 C112.28152177 207.46369529 109.63882872 207.91902048 106.99609375 208.375 C100.81594368 209.43396124 94.62882391 210.44610031 88.4375 211.4375 C87.40351074 211.6039502 86.36952148 211.77040039 85.30419922 211.94189453 C12.34299386 223.50491747 -69.31898041 227.62806669 -141.85766602 211.02075195 C-145.26650233 210.28569374 -148.69209475 209.65183021 -152.12109375 209.01953125 C-183.31337727 203.24501149 -213.6933808 195.65272375 -243.81103516 185.67919922 C-247.34444797 184.50967315 -250.88078083 183.34945419 -254.41796875 182.19140625 C-264.57149118 178.85362258 -274.64891418 175.44023581 -284.5625 171.4375 C-285.50480469 171.06753906 -286.44710937 170.69757813 -287.41796875 170.31640625 C-291.21661009 168.81997178 -294.92998865 167.30729609 -298.5625 165.4375 C-298.5625 165.1075 -298.5625 164.7775 -298.5625 164.4375 C-293.09752127 164.88279853 -287.6587235 165.38769263 -282.23144531 166.17602539 C-266.55259132 168.44025234 -251.13925671 168.95144138 -235.3125 168.875 C-234.0538916 168.87328796 -232.7952832 168.87157593 -231.49853516 168.86981201 C-207.23710985 168.81333112 -183.34724081 167.48668388 -159.5625 162.4375 C-158.33144531 162.20289063 -157.10039063 161.96828125 -155.83203125 161.7265625 C-141.8278858 159.03650066 -128.19951327 155.12319237 -114.55224609 151.03125 C-112.71036437 150.48162345 -110.8650805 149.94343302 -109.01953125 149.40625 C-101.62951325 147.21661504 -94.61457129 144.53975307 -87.5625 141.4375 C-86.16538571 140.8319825 -84.76824882 140.22651714 -83.37109375 139.62109375 C-51.04511898 125.52848469 -17.25082052 107.68146886 1.4375 76.4375 C1.78603027 75.86306152 2.13456055 75.28862305 2.49365234 74.69677734 C8.29696369 64.8589629 10.79997052 54.80781028 8.4375 43.4375 C5.30565819 33.74251559 0.09005748 25.11574084 -8.5625 19.4375 C-12.750933 17.38914226 -16.72425792 17.05623114 -21.3125 16.875 C-28.44045567 16.55954433 -28.44045567 16.55954433 -29.5625 15.4375 C-29.8671875 13.1015625 -29.8671875 13.1015625 -29.5625 10.4375 C-27.9453125 8.5234375 -27.9453125 8.5234375 -25.6875 6.8125 C-24.96820312 6.24273437 -24.24890625 5.67296875 -23.5078125 5.0859375 C-16.04952096 0.91166823 -8.4363661 -0.09377942 0 0 Z " fill="#1D88C5" transform="translate(934.5625,454.5625)"/>
<path d="M0 0 C3.26725405 2.80942227 5.19298031 6.47459089 7.375 10.125 C17.64924443 26.88985419 30.318061 42.62379738 44.39111328 56.36254883 C46.02654861 58.02701996 47.51633302 59.76241727 49 61.5625 C72.32416404 88.54740728 104.49141281 109.65849354 135.96044922 125.9375 C138.17077288 127.0889638 140.36908191 128.26142843 142.56640625 129.4375 C155.1453655 136.15322157 167.87930452 142.41242031 181 148 C182.48060462 148.66346698 183.95998835 149.32967336 185.4375 150 C188.22275029 151.2446734 191.00673697 152.39929436 193.875 153.4375 C197.16337242 154.63624931 200.3219954 156.03356537 203.5 157.5 C209.71767392 160.35401426 215.94412459 162.65806077 222.44604492 164.78515625 C223.1032251 165.00042969 223.76040527 165.21570313 224.4375 165.4375 C225.09919189 165.6540625 225.76088379 165.870625 226.44262695 166.09375 C229.86893028 167.23201713 233.1767479 168.45114275 236.4375 170 C241.19903486 172.23592987 246.17185713 173.6836174 251.19360352 175.21044922 C254.62880706 176.25589306 258.02799324 177.32300755 261.375 178.625 C264.98488877 179.99426815 268.6010797 181.1030091 272.3125 182.15625 C274.39655585 182.8105466 276.45070453 183.56046255 278.48828125 184.34765625 C284.28202024 186.54762132 290.24089245 188.2059587 296.1875 189.9375 C298.49369522 190.61257914 300.79968545 191.28835899 303.10546875 191.96484375 C304.25192871 192.30112793 305.39838867 192.63741211 306.57958984 192.98388672 C309.89011299 193.96735548 313.19001472 194.98016833 316.48828125 196.00390625 C329.2687004 199.94566569 342.14600591 203.35352674 355.125 206.5625 C356.69406645 206.95224844 358.26307711 207.34222158 359.83203125 207.73242188 C362.85681294 208.48438341 365.88187874 209.23518278 368.90722656 209.98486328 C372.39483964 210.84936858 375.88137378 211.71810674 379.3671875 212.58984375 C380.305625 212.82324463 381.2440625 213.05664551 382.2109375 213.29711914 C384.1225762 213.77887753 386.03133954 214.27214952 387.9375 214.77514648 C395.2839963 216.68909579 402.61487942 218.03086821 410.125 219.125 C411.2078125 219.29386719 412.290625 219.46273437 413.40625 219.63671875 C419.70543909 220.5691162 425.97489701 221.19743314 432.32910156 221.54370117 C433.11051702 221.58634 433.89193249 221.62897882 434.69702721 221.67290974 C443.12345771 222.10118108 451.54093622 222.16401055 459.9765625 222.16796875 C461.64212062 222.17119977 463.30767849 222.17456504 464.97323608 222.17805481 C468.43707942 222.18398017 471.90089806 222.18590162 475.36474609 222.18530273 C478.86089261 222.1852216 482.35690773 222.19215511 485.85302734 222.20581055 C505.33286668 222.28071619 524.61356722 222.17776642 544 220 C545.826521 219.81135376 545.826521 219.81135376 547.68994141 219.61889648 C550.46539571 219.31973909 553.23197712 218.98579547 556 218.625 C556.96655518 218.5019751 557.93311035 218.3789502 558.92895508 218.25219727 C569.17238828 216.91013656 579.34633813 215.17286094 589.52539062 213.41699219 C592.48972758 212.91747684 595.46119255 212.48427619 598.4375 212.0625 C606.0071182 210.93576387 613.49230951 209.32480025 620.98217773 207.76391602 C625.69638908 206.79486937 630.35040898 205.90123955 635.140625 205.41015625 C638.79202956 205.24989607 638.79202956 205.24989607 641 204 C649.77104062 202.6197358 658.76364406 202.81378003 667.61865234 202.81469727 C670.02328389 202.81247852 672.42747852 202.79416476 674.83203125 202.77539062 C676.36718595 202.77246163 677.9023428 202.77047353 679.4375 202.76953125 C680.15309082 202.76234573 680.86868164 202.75516022 681.60595703 202.74775696 C685.29865987 202.76484141 686.84127429 202.89418286 690 205 C689.46632813 205.15855469 688.93265625 205.31710937 688.3828125 205.48046875 C667.65367238 211.97177387 652.82454993 226.36194365 639.890625 243.25 C635.23170611 249.33301443 630.34185203 255.2324206 625.49414062 261.16503906 C624.12929753 262.84120911 622.77348188 264.52408955 621.421875 266.2109375 C601.67851092 290.72225685 566.98661456 309.54364022 537 319 C536.01 319 535.02 319 534 319 C534 319.66 534 320.32 534 321 C533.04480469 321.31453125 532.08960938 321.6290625 531.10546875 321.953125 C529.79945122 322.38533224 528.49346326 322.81762881 527.1875 323.25 C526.56423828 323.45496094 525.94097656 323.65992188 525.29882812 323.87109375 C521.4307364 325.15397844 517.60812654 326.52002004 513.79296875 327.953125 C507.66692496 330.19347046 501.43460021 331.86302731 495.125 333.5 C488.24532895 335.31102483 481.39341488 337.11933644 474.625 339.3125 C469.77561447 340.85877626 464.98783455 341.80341257 459.94921875 342.5078125 C456.90351838 342.96492212 456.90351838 342.96492212 453.61328125 343.92578125 C447.70664092 345.44098413 441.64580771 346.06791252 435.60351562 346.80493164 C433.53156596 347.05863486 431.46112703 347.32266306 429.390625 347.58789062 C411.7225183 349.81150215 394.20820911 350.16041294 376.41650391 350.13037109 C372.61226471 350.12498196 368.80814201 350.13035961 365.00390625 350.13671875 C362.55729141 350.13605837 360.11067664 350.13477805 357.6640625 350.1328125 C355.97937363 350.13584885 355.97937363 350.13584885 354.26065063 350.13894653 C337.17712238 350.08856119 337.17712238 350.08856119 333 348 C331.57241321 347.81569054 330.13839853 347.67969208 328.703125 347.5703125 C327.83389404 347.4988501 326.96466309 347.4273877 326.0690918 347.35375977 C325.1387915 347.27826904 324.20849121 347.20277832 323.25 347.125 C315.77360665 346.46693578 308.64664461 345.50031372 301.33984375 343.76953125 C297.8245401 342.9595724 294.30633354 342.35320746 290.75 341.75 C283.24724542 340.41543923 275.91728545 338.48148271 268.5625 336.5 C267.46067383 336.20319336 266.35884766 335.90638672 265.22363281 335.60058594 C255.29097768 332.88017721 245.65954476 329.5572575 236 326 C235.34515625 325.76539063 234.6903125 325.53078125 234.015625 325.2890625 C227.93519441 323.08035908 222.01096656 320.49832251 216.08691406 317.90527344 C213.89525546 316.95456332 211.69403337 316.02840987 209.4921875 315.1015625 C181.30827745 303.04080263 154.3748709 285.84182699 131 266 C130.44231934 265.53255371 129.88463867 265.06510742 129.31005859 264.58349609 C116.71528714 254.01318967 104.41513001 242.76767034 94 230 C93.5875 229.50129395 93.175 229.00258789 92.75 228.48876953 C79.11491925 211.97043734 67.62468936 194.58881891 57 176 C56.55994629 175.23171875 56.11989258 174.4634375 55.66650391 173.671875 C53.41222026 169.72576966 51.18490817 165.76581253 48.98779297 161.78759766 C48.33061171 160.59830423 47.67078855 159.41046675 47.00830078 158.22412109 C43.54578372 152.02008275 40.39968056 145.88649668 37.88671875 139.23828125 C37.07677003 137.19378515 36.15932506 135.31277633 35.125 133.375 C32.7988701 128.85903688 31.10655609 124.11043451 29.35864258 119.35058594 C27.60053011 114.56869688 25.73923658 109.84116405 23.8125 105.125 C21.52937996 99.49190174 19.6484064 93.84683376 18 88 C17.35836689 85.91536923 16.7122229 83.83212358 16.0625 81.75 C14.27175981 75.94718161 12.58668881 70.11902964 10.94140625 64.2734375 C10.13647999 61.47456528 9.26747645 58.70911028 8.375 55.9375 C6.9418653 51.19890947 6.22237633 46.4501657 5.53125 41.5546875 C4.95254135 37.68244579 4.24061974 33.84360066 3.5 30 C-0.33309196 9.8262127 -0.33309196 9.8262127 0 0 Z " fill="#5DC2AE" transform="translate(408,481)"/>
<path d="M0 0 C3.99838316 2.58606644 7.15760069 6.10311051 10.23828125 9.6953125 C13.99365245 14.02154786 17.87991219 18.20993456 21.8125 22.375 C22.51173584 23.11741943 23.21097168 23.85983887 23.93139648 24.62475586 C28.50795406 29.46750906 33.17125915 34.19911054 37.91015625 38.8828125 C40.44835744 41.4542238 42.81618007 44.13810487 45.1640625 46.8828125 C47.3520617 49.40599455 49.61293113 51.85554519 51.875 54.3125 C69.15421959 73.30923238 84.03935491 93.92487779 95.09082031 117.12866211 C95.71700744 118.41752472 96.36350118 119.69665296 97.02636719 120.96704102 C99.39879468 125.5249203 101.11959781 129.99228415 102.5 134.9375 C102.7064917 135.66259766 102.9129834 136.38769531 103.12573242 137.13476562 C109.68844992 160.53381365 109.68844992 160.53381365 109 170 C105.99242797 167.28069366 103.84797229 164.00327465 101.5625 160.6875 C91.6800306 146.62263826 80.23166723 133.973646 66.7890625 123.234375 C65.01328341 121.81176206 63.25563241 120.36599606 61.5234375 118.890625 C49.04363552 108.30404375 35.10822629 99.25980456 21 91 C20.22930176 90.5477002 19.45860352 90.09540039 18.66455078 89.62939453 C8.06689535 83.43449342 -2.6013593 77.51959379 -13.64013672 72.15136719 C-18.73082795 69.66764074 -23.80239806 67.14539881 -28.875 64.625 C-29.94081299 64.10035156 -31.00662598 63.57570313 -32.10473633 63.03515625 C-33.09884521 62.54144531 -34.0929541 62.04773438 -35.1171875 61.5390625 C-36.01034668 61.09771973 -36.90350586 60.65637695 -37.82373047 60.20166016 C-40 59 -40 59 -42 57 C-42.80787294 51.36172012 -40.65871567 47.63907002 -38 42.875 C-37.59136719 42.12581299 -37.18273437 41.37662598 -36.76171875 40.60473633 C-33.19303338 34.15444801 -29.28785691 27.99804262 -25 22 C-24.27941406 20.98164063 -23.55882812 19.96328125 -22.81640625 18.9140625 C-8.15023165 -1.26781381 -8.15023165 -1.26781381 0 0 Z " fill="#5FC2AF" transform="translate(297,354)"/>
<path d="M0 0 C8.07707507 0.1302754 13.09700259 2.4582166 19 8 C28.51294572 19.51050059 31.68255857 32.80854434 35 47 C35.17031738 47.71075684 35.34063477 48.42151367 35.51611328 49.15380859 C37.17084143 56.07315629 38.80190724 62.95001015 39.63671875 70.0234375 C41.46913696 85.52109599 46.86874317 96.71413756 55.45703125 109.66796875 C57.04688711 112.07086482 58.5333623 114.5203693 60 117 C53.63891373 117.12122431 47.60275852 116.7404426 41.3125 115.8125 C39.94955811 115.6117688 39.94955811 115.6117688 38.55908203 115.40698242 C23.30521328 113.05670822 8.49000601 109.26805246 -6.3125 104.9375 C-7.43930176 104.60919189 -8.56610352 104.28088379 -9.72705078 103.94262695 C-15.35653519 102.25479307 -20.72581424 100.3829937 -26.0534668 97.8996582 C-28.7329915 96.66122242 -31.48171371 95.64680201 -34.25 94.625 C-42.81748714 91.36694151 -51.15060811 87.74676063 -59 83 C-59.99 82.5875 -60.98 82.175 -62 81.75 C-78.71007903 74.7425475 -94.01229444 64.05626457 -108.40673828 53.19384766 C-109.83051535 52.12699662 -111.27160771 51.08334466 -112.71484375 50.04296875 C-114.51290293 48.7441949 -116.26452905 47.3812932 -118 46 C-118 45.34 -118 44.68 -118 44 C-116.35 44 -114.7 44 -113 44 C-113 44.66 -113 45.32 -113 46 C-112.01 46.268125 -111.02 46.53625 -110 46.8125 C-107.3094347 47.55160786 -105.17992961 48.3948487 -102.625 49.625 C-94.70569515 52.68754367 -84.48952869 51.4075004 -76.171875 50.5 C-62.86204882 49.09195915 -48.75789126 48.60138376 -36 53 C-35.01257813 53.26683594 -34.02515625 53.53367187 -33.0078125 53.80859375 C-25.09230481 56.07448336 -19.4323095 59.9625103 -13 65 C-12.34 65.33 -11.68 65.66 -11 66 C-11.33 65.34 -11.66 64.68 -12 64 C-13.07948303 53.85559238 -13.39057358 43.4195807 -7 35 C-5.26418188 32.9270922 -3.47854924 30.91963433 -1.6484375 28.9296875 C2.36460719 24.23195272 4.70173143 19.2615764 4.40625 13.01953125 C3.79029407 9.95751956 2.44166009 7.44353619 0.875 4.76171875 C0 3 0 3 0 0 Z " fill="#208AC6" transform="translate(604,492)"/>
<path d="M0 0 C4.79584812 0.59185403 9.24951895 1.54775796 13.875 2.9375 C18.42532425 4.27245317 22.93466641 5.47838569 27.57421875 6.4453125 C30.66369805 7.15176348 33.69778966 8.02183611 36.75 8.875 C46.37714646 11.50944728 56.17503694 13.2784605 66 15 C66.64866028 15.11581421 67.29732056 15.23162842 67.96563721 15.35095215 C78.69956083 17.25916442 89.37998542 18.74983855 100.25 19.625 C100.99804901 19.68792236 101.74609802 19.75084473 102.51681519 19.81567383 C120.51941067 21.29754152 138.56468787 21.45449816 156.62011719 21.53369141 C157.74782028 21.54385284 158.87552338 21.55401428 160.03739929 21.56448364 C162.14231635 21.58327081 164.24738074 21.59082089 166.35237122 21.584198 C173.58906167 21.66123604 180.06218135 22.98954106 187 25 C188.38131859 25.39668884 188.38131859 25.39668884 189.7905426 25.8013916 C193.75128969 26.9557764 197.66206055 28.21961514 201.5625 29.5625 C205.97341281 31.0590597 210.4371364 32.08311251 215 33 C215 33.66 215 34.32 215 35 C215.60513428 35.05043457 216.21026855 35.10086914 216.83374023 35.15283203 C223.00266398 35.71197051 228.98844885 36.68360129 235.0625 37.875 C257.68591821 42.09148893 280.04189762 43.58574255 303 44 C299.1312652 45.9343674 296.22447666 47.19094788 291.8984375 47.71875 C290.85848633 47.84580322 289.81853516 47.97285645 288.74707031 48.10375977 C287.63428711 48.23451904 286.52150391 48.36527832 285.375 48.5 C284.2415918 48.635271 283.10818359 48.77054199 281.94042969 48.90991211 C274.58883774 49.76376344 267.28777529 50.40756211 259.890625 50.69140625 C256.60103269 50.95232773 253.5272045 51.42891591 250.28540039 52.00488281 C242.36773172 53.23453092 234.52997836 53.27172183 226.54296875 53.23046875 C224.98562153 53.22927183 223.42827357 53.22882487 221.8709259 53.2290802 C218.62606197 53.22752791 215.3813103 53.21933919 212.13647461 53.20581055 C208.02543457 53.18886596 203.91451766 53.18499598 199.80344677 53.18575573 C196.59193293 53.18548063 193.38044476 53.17994513 190.16893959 53.17275429 C188.65544134 53.16962354 187.14194025 53.1676137 185.62843895 53.16686058 C164.51805402 53.1448518 143.80091917 51.09616762 122.9375 47.9375 C121.77621582 47.76307373 120.61493164 47.58864746 119.41845703 47.40893555 C118.34063965 47.24176025 117.26282227 47.07458496 116.15234375 46.90234375 C115.18288818 46.75273193 114.21343262 46.60312012 113.21459961 46.44897461 C111 46 111 46 110 45 C108.69097937 44.70455352 107.37036906 44.46006293 106.046875 44.23828125 C82.98293759 40.20803537 61.46458767 33.2927697 40 24 C39.32735107 23.71253906 38.65470215 23.42507813 37.96166992 23.12890625 C32.53793141 20.77437876 27.34493549 18.13866114 22.1875 15.25 C21.412854 14.81751953 20.63820801 14.38503906 19.84008789 13.93945312 C1.90707468 3.81414937 1.90707468 3.81414937 0 0 Z " fill="#61C3B0" transform="translate(461,795)"/>
<path d="M0 0 C2.24541575 -0.00968373 4.48990742 -0.0406952 6.73510742 -0.07226562 C8.16804471 -0.07879815 9.60098853 -0.08404764 11.03393555 -0.08789062 C12.98650269 -0.10190918 12.98650269 -0.10190918 14.97851562 -0.11621094 C18.69567626 0.26525069 20.60540635 0.83212325 23.4519043 3.24023438 C24.06713867 5.28637695 24.06713867 5.28637695 24.0456543 7.63476562 C24.0451709 8.93317383 24.0451709 8.93317383 24.04467773 10.2578125 C24.0140625 11.18013672 23.98344727 12.10246094 23.9519043 13.05273438 C23.92531738 14.48069336 23.92531738 14.48069336 23.89819336 15.9375 C23.70603929 22.31528785 22.94909758 28.29395565 21.37768555 34.49023438 C19.95285393 40.2617042 18.95485837 46.11056411 17.89819336 51.95898438 C17.04612702 56.54942698 15.9592108 60.81464649 14.4519043 65.24023438 C13.52942955 68.82898968 12.70835477 72.43914577 11.8894043 76.05273438 C11.66833008 76.99955078 11.44725586 77.94636719 11.21948242 78.921875 C10.04778261 84.06531858 9.21122943 89.0790679 8.7175293 94.328125 C8.37100009 96.82262569 7.41204287 98.92021082 6.4519043 101.24023438 C6.02270662 103.85749862 5.66769462 106.42039639 5.3894043 109.05273438 C5.30706543 109.78741943 5.22472656 110.52210449 5.13989258 111.27905273 C4.31730351 118.91609999 3.84415681 126.57066555 3.4519043 134.24023438 C-10.79696668 123.51110154 -19.22895334 103.30270056 -22.5480957 86.24023438 C-22.7955957 85.08265625 -23.0430957 83.92507813 -23.2980957 82.73242188 C-23.7002832 80.81816406 -23.7002832 80.81816406 -24.1105957 78.86523438 C-24.35938477 77.681875 -24.60817383 76.49851562 -24.86450195 75.27929688 C-26.53484493 66.19471177 -26.72991966 57.01494921 -26.7355957 47.80273438 C-26.7478418 46.76052734 -26.76008789 45.71832031 -26.77270508 44.64453125 C-26.79850854 30.77087078 -25.21040162 11.91962513 -15.5480957 1.24023438 C-11.07472289 -0.99645203 -4.97601541 0.01300777 0 0 Z " fill="#5FC2AF" transform="translate(430.548095703125,365.759765625)"/>
<path d="M0 0 C-0.38744385 0.4125 -0.7748877 0.825 -1.17407227 1.25 C-8.50591127 9.06249026 -15.76121819 16.90566769 -22.74609375 25.03125 C-34.91666402 38.88624617 -47.92683881 52.3048639 -63 63 C-63.59200195 63.42571289 -64.18400391 63.85142578 -64.79394531 64.29003906 C-80.90591118 75.78147303 -100.75746646 87.35737989 -121 88 C-120.74810077 84.76235395 -119.92787681 83.93614782 -117.4453125 81.73828125 C-116.34538668 80.92040063 -115.23811651 80.11233571 -114.125 79.3125 C-112.9341008 78.42293836 -111.74400968 77.53229398 -110.5546875 76.640625 C-109.95624023 76.19654297 -109.35779297 75.75246094 -108.74121094 75.29492188 C-93.84673783 64.21804507 -82.84162586 50.91413906 -75.9375 33.5625 C-71.36287809 22.62213438 -63.45752357 19.18955637 -52.93554688 14.76660156 C-48.06120017 12.83604547 -43.03620722 11.43410714 -38 10 C-36.4549959 9.48915187 -34.91294069 8.96923481 -33.375 8.4375 C-29.19782991 7.02215848 -24.96327556 5.89034306 -20.703125 4.75390625 C-17.45172761 3.84708588 -14.26974149 2.78351641 -11.07421875 1.69921875 C-2.42969629 -1.21484814 -2.42969629 -1.21484814 0 0 Z " fill="#218AC6" transform="translate(1280,624)"/>
<path d="M0 0 C2.11320257 2.81760343 2.66239319 4.83046522 2.4140625 8.359375 C-0.98859102 21.87136146 -19.14450236 30.8399781 -30.125 37.5 C-40.80397107 43.8554906 -51.83296942 49.61216029 -62.86376953 55.32763672 C-64.34286773 56.09449372 -65.82047425 56.86423646 -67.29638672 57.63720703 C-69.25588087 58.66237895 -71.22051937 59.67678414 -73.1875 60.6875 C-74.29222656 61.25855469 -75.39695312 61.82960938 -76.53515625 62.41796875 C-77.81712891 62.95357422 -77.81712891 62.95357422 -79.125 63.5 C-79.785 63.17 -80.445 62.84 -81.125 62.5 C-80.4959375 61.89414062 -79.866875 61.28828125 -79.21875 60.6640625 C-72.09758523 53.69304277 -65.90934288 46.45725872 -60.16015625 38.32421875 C-35.62493106 3.62498277 -35.62493106 3.62498277 -16.375 -1.1875 C-4.79389186 -2.30106809 -4.79389186 -2.30106809 0 0 Z " fill="#61C3B0" transform="translate(1118.125,692.5)"/>
<path d="M0 0 C1.58071289 -0.01836914 1.58071289 -0.01836914 3.19335938 -0.03710938 C4.20333984 -0.03904297 5.21332031 -0.04097656 6.25390625 -0.04296875 C7.17631104 -0.04707764 8.09871582 -0.05118652 9.04907227 -0.05541992 C11.4375 0.1875 11.4375 0.1875 14.4375 2.1875 C14.9375 4.5 14.9375 4.5 14.4375 7.1875 C12.82186449 9.23397165 11.44419765 10.57661886 9.4375 12.1875 C8.81359375 12.70054687 8.1896875 13.21359375 7.546875 13.7421875 C-9.86163112 26.95073934 -37.80011908 38.58818131 -59.5625 41.1875 C-56.83349844 37.94681064 -53.26208109 36.27890492 -49.5625 34.375 C-48.20691617 33.66297947 -46.85144826 32.95073821 -45.49609375 32.23828125 C-44.18515548 31.5541897 -42.87397301 30.87056584 -41.5625 30.1875 C-35.4025537 26.97394685 -29.6376574 23.76087917 -24.21875 19.38671875 C-22.5625 18.1875 -22.5625 18.1875 -19.5625 17.1875 C-18.45413577 15.30433841 -18.45413577 15.30433841 -17.5625 13.1875 C-16.9025 12.1975 -16.2425 11.2075 -15.5625 10.1875 C-15.32142674 7.90101152 -15.32142674 7.90101152 -15.4375 5.5 C-15.45554687 4.69175781 -15.47359375 3.88351562 -15.4921875 3.05078125 C-15.51539063 2.43589844 -15.53859375 1.82101562 -15.5625 1.1875 C-10.45500751 -0.31162494 -5.27966465 0.00324105 0 0 Z " fill="#268DC7" transform="translate(1434.5625,537.8125)"/>
<path d="M0 0 C8.25 0 16.5 0 25 0 C21.04711593 1.97644203 18.73657423 3.1262746 14.4296875 3.53515625 C13.53378906 3.62216797 12.63789062 3.70917969 11.71484375 3.79882812 C10.77769531 3.88583984 9.84054687 3.97285156 8.875 4.0625 C7.93011719 4.15337891 6.98523438 4.24425781 6.01171875 4.33789062 C3.67479389 4.56214099 1.33757884 4.78269057 -1 5 C2 3 2 3 6 3 C6 2.34 6 1.68 6 1 C4.02 1 2.04 1 0 1 C0 0.67 0 0.34 0 0 Z " fill="#96D6C9" transform="translate(739,839)"/>
<path d="M0 0 C4.92959122 -0.04942899 9.85903825 -0.08573318 14.78881836 -0.10986328 C16.46592725 -0.11992237 18.14301861 -0.13357122 19.82006836 -0.15087891 C22.23035002 -0.17513152 24.64039986 -0.1864839 27.05078125 -0.1953125 C28.17592888 -0.21079636 28.17592888 -0.21079636 29.32380676 -0.22659302 C33.10300779 -0.227408 34.77414399 -0.15057067 38 2 C34.25 3.125 34.25 3.125 32 2 C29.59439727 1.84391977 27.21297228 1.74195542 24.8046875 1.68359375 C24.09724396 1.66281265 23.38980042 1.64203156 22.66091919 1.62062073 C20.39904575 1.55518922 18.13705538 1.49627026 15.875 1.4375 C14.34243578 1.39430867 12.80988343 1.35069418 11.27734375 1.30664062 C7.51834927 1.19951445 3.75923708 1.0982291 0 1 C0 0.67 0 0.34 0 0 Z " fill="#96D6CA" transform="translate(1060,684)"/>
<path d="M0 0 C0 0.99 0 1.98 0 3 C-1.76774419 3.53122363 -3.53934083 4.04964073 -5.3125 4.5625 C-6.29863281 4.85253906 -7.28476563 5.14257812 -8.30078125 5.44140625 C-11 6 -11 6 -14 5 C-12.23628182 3.96692229 -10.46374967 2.94887951 -8.6875 1.9375 C-7.70136719 1.36902344 -6.71523437 0.80054688 -5.69921875 0.21484375 C-3 -1 -3 -1 0 0 Z " fill="#489ECF" transform="translate(1389,573)"/>
<path d="M0 0 C0.66 0.33 1.32 0.66 2 1 C1.51789062 1.47050781 1.03578125 1.94101562 0.5390625 2.42578125 C-0.40839844 3.35970703 -0.40839844 3.35970703 -1.375 4.3125 C-2.00148438 4.92738281 -2.62796875 5.54226563 -3.2734375 6.17578125 C-5.18086607 8.08812528 -5.18086607 8.08812528 -7 11 C-7.4375 8.875 -7.4375 8.875 -7 6 C-4.87310854 3.723853 -2.4976567 1.8541278 0 0 Z " fill="#4DA1D0" transform="translate(912,459)"/>
<path d="M0 0 C0.66 0.33 1.32 0.66 2 1 C0.35 2.65 -1.3 4.3 -3 6 C-2.34 6.66 -1.68 7.32 -1 8 C-2.65 8 -4.3 8 -6 8 C-5.65120368 4.74456771 -4.97866739 3.98126893 -2.4375 1.75 C-1.633125 1.1725 -0.82875 0.595 0 0 Z " fill="#479ECF" transform="translate(1165,704)"/>
<path d="M0 0 C0.33 0 0.66 0 1 0 C1.33 6.27 1.66 12.54 2 19 C1.01 18.67 0.02 18.34 -1 18 C-0.505 9.09 -0.505 9.09 0 0 Z " fill="#8DC2E0" transform="translate(591,539)"/>
<path d="M0 0 C0.66 1.32 1.32 2.64 2 4 C0.03533587 5.06775224 -1.96855359 6.06553465 -4 7 C-4.66 6.67 -5.32 6.34 -6 6 C-4.02 4.02 -2.04 2.04 0 0 Z " fill="#7DCDBE" transform="translate(1043,749)"/>
<path d="M0 0 C3.63 0.33 7.26 0.66 11 1 C6.67161176 3.16419412 5.50257649 3.20068706 1 2 C0.67 1.34 0.34 0.68 0 0 Z " fill="#85BEDE" transform="translate(636,619)"/>
<path d="M0 0 C-3.44450737 2.29633824 -5.93812283 2.54016485 -10 3 C-6.46873184 -0.69178035 -5.02635024 -1.19045137 0 0 Z " fill="#5EAAD4" transform="translate(1385,576)"/>
<path d="M0 0 C1.65 0 3.3 0 5 0 C5.33 1.98 5.66 3.96 6 6 C3.96166576 4.7260411 1.96147874 3.38938077 0 2 C0 1.34 0 0.68 0 0 Z " fill="#62ACD5" transform="translate(486,536)"/>
<path d="M0 0 C1.258125 -0.04125 2.51625 -0.0825 3.8125 -0.125 C4.52019531 -0.14820313 5.22789063 -0.17140625 5.95703125 -0.1953125 C8 0 8 0 11 2 C6.99799622 3.60080151 3.95443764 2.29279692 0 1 C0 0.67 0 0.34 0 0 Z " fill="#A6DCD2" transform="translate(1087,684)"/>
</svg>
